<svg version="1.0" xmlns="http://www.w3.org/2000/svg"
 width="100%" height="100%" viewBox="0 0 500.000000 261.000000"
 preserveAspectRatio="xMidYMid meet">
 
<circle cx="250" cy="130.5" r="250" stroke="none" fill="#FFFFFF"/>

<g transform="translate(0.000000,261.000000) scale(0.100000,-0.100000)"
fill="#0F62AC" stroke="#0F62AC" stroke-width="50" stroke-linecap="round" stroke-linejoin="round">
<path d="M2625 2603 c-93 -21 -142 -36 -155 -48 -9 -8 -22 -15 -29 -15 -16 0
-86 -48 -132 -91 -84 -79 -138 -170 -180 -304 -19 -61 -22 -100 -26 -317 -5
-202 -8 -248 -19 -248 -8 0 -14 -4 -14 -10 0 -6 -103 -10 -288 -10 l-288 0 4
-110 c3 -78 1 -110 -7 -110 -8 0 -11 -92 -11 -333 l0 -333 -25 -35 c-31 -42
-60 -65 -104 -84 -91 -40 -204 12 -250 115 -20 43 -21 64 -21 474 l0 429 -347
-6 c-190 -4 -420 -7 -510 -7 l-163 0 0 -191 0 -191 48 6 c26 3 126 8 222 11
96 4 208 10 249 16 41 5 76 8 78 5 2 -2 17 -164 34 -361 17 -205 35 -367 42
-380 6 -13 71 -84 142 -158 102 -106 139 -137 170 -147 226 -67 251 -67 391 3
74 36 108 48 111 40 3 -7 9 -13 15 -13 5 0 58 38 116 84 118 92 131 109 187
261 l38 100 -7 237 c-7 287 -6 295 43 302 124 18 141 18 141 2 0 -9 5 -16 10
-16 7 0 10 -178 10 -515 l0 -515 189 0 189 0 7 238 c4 130 5 310 1 399 -5 111
-4 163 4 163 6 0 10 39 10 105 0 63 -4 105 -10 105 -5 0 -10 10 -10 21 l0 22
413 -7 c226 -4 420 -10 430 -12 16 -5 17 -38 17 -510 l0 -504 195 0 195 0 2
508 3 507 623 9 622 8 0 195 0 194 -187 -5 c-104 -3 -378 -8 -610 -12 l-423
-5 0 270 c0 263 1 271 20 271 10 0 24 9 30 19 15 28 112 81 149 81 70 0 152
-57 182 -128 15 -35 19 -68 19 -168 l0 -124 211 0 211 0 -4 178 c-3 157 -5
182 -25 222 -11 25 -24 56 -28 69 -11 37 -71 120 -124 171 -56 55 -140 120
-155 120 -6 0 -31 10 -56 23 -29 15 -83 28 -145 36 -233 30 -435 -55 -583
-245 -18 -23 -32 -44 -32 -47 0 -3 -10 -23 -22 -44 -13 -21 -33 -78 -45 -128
-15 -66 -22 -80 -22 -54 -1 43 -40 156 -77 224 -23 43 -119 147 -180 196 -42
33 -151 80 -219 94 -66 14 -195 18 -240 8z m211 -437 c22 -14 51 -45 64 -69
22 -37 25 -57 28 -179 l4 -138 204 0 204 0 0 -100 0 -100 -162 0 c-90 0 -273
-5 -407 -10 -134 -6 -244 -10 -245 -8 -1 2 1 118 4 259 l5 256 30 35 c17 19
50 47 75 61 60 35 137 32 196 -7z"/>
</g>
</svg>
