<?xml version="1.0" standalone="no"?>
<!DOCTYPE svg PUBLIC "-//W3C//DTD SVG 20010904//EN"
 "http://www.w3.org/TR/2001/REC-SVG-20010904/DTD/svg10.dtd">
<svg version="1.0" xmlns="http://www.w3.org/2000/svg"
 width="1280.000000pt" height="656.000000pt" viewBox="0 0 1280.000000 656.000000"
 preserveAspectRatio="xMidYMid meet">

<g transform="translate(0.000000,656.000000) scale(0.100000,-0.100000)"
fill="#FFFFFF" stroke="none">
<path d="M6696 6420 c-250 -40 -491 -136 -690 -277 -107 -77 -286 -256 -363
-366 -103 -146 -196 -344 -237 -504 -45 -173 -47 -210 -46 -844 l0 -606 -481
-6 c-265 -4 -621 -7 -790 -7 l-308 0 -3 -1107 -3 -1108 -23 -59 c-89 -235
-329 -383 -563 -346 -220 34 -392 194 -438 408 -8 38 -11 369 -11 1136 l0
1083 -653 6 c-358 4 -939 7 -1289 7 l-638 0 0 -525 0 -525 774 0 775 0 4 -662
c3 -641 4 -666 25 -753 35 -142 70 -241 128 -360 321 -661 1068 -1007 1779
-825 279 72 509 204 715 410 172 173 294 369 375 600 86 248 95 346 95 1053
l0 537 263 -2 262 -3 3 -1297 2 -1298 515 0 515 0 0 1300 0 1300 1045 0 1045
0 0 -1295 0 -1295 520 0 520 0 0 1295 0 1295 1560 0 1560 0 0 520 0 520 -1560
0 -1560 0 0 573 0 572 25 70 c65 185 228 319 422 347 244 35 485 -119 565
-361 20 -61 22 -91 26 -373 l4 -308 512 0 513 0 6 238 c13 471 -23 692 -158
967 -215 439 -600 738 -1092 847 -82 18 -131 22 -303 22 -175 0 -220 -3 -306
-22 -210 -46 -407 -129 -576 -243 -121 -82 -324 -285 -405 -404 -152 -225
-236 -461 -266 -750 l-13 -120 -8 90 c-37 427 -195 763 -490 1042 -209 198
-461 330 -748 394 -106 23 -429 35 -532 19z m386 -1055 c124 -42 236 -142 297
-262 46 -92 51 -139 51 -460 l0 -303 525 0 525 0 0 -260 0 -260 -1045 0 -1045
0 0 563 c0 607 1 612 55 724 32 64 118 160 182 202 134 89 299 109 455 56z"/>
</g>
</svg>
